<svg width="247" height="92" viewBox="0 0 247 92" fill="none" xmlns="http://www.w3.org/2000/svg">
<path d="M50.636 18.364C54.1508 14.8492 59.8492 14.8492 63.364 18.364L81.636 36.636C85.1508 40.1508 85.1508 45.8492 81.636 49.364L63.364 67.636C59.8492 71.1508 54.1508 71.1508 50.636 67.636L32.364 49.364C28.8492 45.8492 28.8492 40.1508 32.364 36.636L50.636 18.364Z" fill="black"/>
<path d="M17.7391 9.65733C23.1198 7.64066 29.1639 9.89806 31.9052 14.9483C35.2423 21.096 32.3744 28.7747 25.8242 31.2297C20.4435 33.2463 14.3994 30.9889 11.6581 25.9387C8.32099 19.791 11.1889 12.1123 17.7391 9.65733Z" fill="black"/>
<path d="M220.739 59.6573C226.12 57.6407 232.164 59.8981 234.905 64.9483C238.242 71.096 235.374 78.7747 228.824 81.2297C223.443 83.2463 217.399 80.9889 214.658 75.9387C211.321 69.791 214.189 62.1123 220.739 59.6573Z" fill="black"/>
<path d="M193.704 72.9389C197.016 71.6674 200.757 73.0646 202.425 76.1962C204.41 79.9236 202.683 84.5477 198.74 86.0611C195.428 87.3326 191.687 85.9354 190.019 82.8038C188.034 79.0764 189.761 74.4523 193.704 72.9389Z" fill="black"/>
<path d="M65.888 31.136C66.6987 31.7333 67.328 32.4907 67.776 33.408C68.224 34.3253 68.448 35.2533 68.448 36.192C68.448 37.0027 68.32 37.8773 68.064 38.816C67.8293 39.7333 67.52 40.6293 67.136 41.504L60.48 56.768L56.352 45.664L52.256 56.768L43.968 34.336L47.008 33.216L53.12 50.24L55.616 43.616L52.704 35.808L55.808 34.656L61.536 50.848L64.8 43.456C65.1627 42.56 65.4507 41.7493 65.664 41.024C65.8773 40.2773 65.984 39.616 65.984 39.04C65.984 37.12 65.0773 35.424 63.264 33.952L65.888 31.136ZM77.016 40C78.0613 40 79.0427 40.224 79.96 40.672C80.8987 41.12 81.5813 41.8027 82.008 42.72L79.704 43.968C79.3627 43.4773 78.8933 43.04 78.296 42.656C77.6987 42.2507 77.0587 42.048 76.376 42.048C75.288 42.048 74.3387 42.336 73.528 42.912C72.7173 43.4667 72.0987 44.224 71.672 45.184C71.2453 46.144 71.032 47.2107 71.032 48.384C71.032 50.0693 71.32 51.4453 71.896 52.512C72.472 53.5573 73.3787 54.08 74.616 54.08C76.3653 54.08 77.5707 53.376 78.232 51.968C78.8933 50.56 79.224 49.024 79.224 47.36V45.92L82.04 44.736V53.152C82.04 53.4293 82.1147 53.696 82.264 53.952C82.4133 54.208 82.6373 54.336 82.936 54.336C83.5547 54.336 84.12 53.9093 84.632 53.056L85.112 53.568C84.856 54.2933 84.408 54.912 83.768 55.424C83.128 55.9147 82.488 56.16 81.848 56.16C80.9307 56.16 80.248 55.8187 79.8 55.136C79.3733 54.4533 79.16 53.5467 79.16 52.416H79.096C78.5627 53.5467 77.8373 54.496 76.92 55.264C76.024 56.0107 75.0747 56.384 74.072 56.384C72.2587 56.384 70.8827 55.7653 69.944 54.528C69.0267 53.2693 68.568 51.5947 68.568 49.504C68.568 47.84 68.9413 46.2827 69.688 44.832C70.4347 43.36 71.448 42.1867 72.728 41.312C74.0293 40.4373 75.4587 40 77.016 40ZM99.2623 39.712C100.116 39.712 100.67 40.032 100.926 40.672C101.182 41.2907 101.31 42.1547 101.31 43.264V44.256V53.312C101.31 53.5467 101.385 53.792 101.534 54.048C101.684 54.2827 101.897 54.4 102.174 54.4C102.537 54.4 102.846 54.2827 103.102 54.048C103.358 53.8133 103.614 53.5147 103.87 53.152L104.35 53.632C104.03 54.3147 103.55 54.912 102.91 55.424C102.27 55.9147 101.662 56.16 101.086 56.16C100.233 56.16 99.5716 55.8933 99.1023 55.36C98.6329 54.8267 98.3983 54.016 98.3983 52.928V44.448C98.3983 44.128 98.3663 43.8613 98.3023 43.648C98.2383 43.4347 98.0783 43.328 97.8223 43.328C96.9476 43.328 96.0516 44.1707 95.1343 45.856C94.2169 47.5413 93.4276 49.4293 92.7663 51.52C92.1263 53.5893 91.8063 54.9547 91.8063 55.616L89.0223 56.448V42.752C89.0223 42.4533 88.9369 42.1867 88.7663 41.952C88.6169 41.696 88.3929 41.568 88.0943 41.568C87.5823 41.568 87.0276 42.0267 86.4303 42.944L85.9503 42.432C86.2276 41.664 86.6863 41.024 87.3263 40.512C87.9663 39.9787 88.6063 39.712 89.2463 39.712C90.1423 39.712 90.8036 39.9253 91.2303 40.352C91.6783 40.7787 91.9023 41.3653 91.9023 42.112V50.528H92.0303C92.6063 48.6293 93.1609 46.976 93.6943 45.568C94.2276 44.16 94.9743 42.8373 95.9343 41.6C96.8943 40.3413 98.0036 39.712 99.2623 39.712ZM120.107 53.152C120.107 53.4507 120.171 53.728 120.299 53.984C120.448 54.2187 120.672 54.336 120.971 54.336C121.27 54.336 121.568 54.208 121.867 53.952C122.166 53.6747 122.39 53.376 122.539 53.056L123.147 53.568C122.806 54.2933 122.315 54.912 121.675 55.424C121.056 55.9147 120.448 56.16 119.851 56.16C118.87 56.16 118.155 55.8827 117.707 55.328C117.259 54.7733 117.046 53.8133 117.067 52.448H116.939C115.638 55.072 114.048 56.384 112.171 56.384C110.315 56.384 108.886 55.744 107.883 54.464C106.902 53.1627 106.411 51.5413 106.411 49.6C106.411 48.064 106.742 46.5387 107.403 45.024C108.064 43.5093 109.003 42.2613 110.219 41.28C111.456 40.2987 112.875 39.808 114.475 39.808C115.478 39.808 116.352 40.064 117.099 40.576V27.648L120.107 26.432V53.152ZM114.283 41.696C113.088 41.696 112.096 42.0693 111.307 42.816C110.539 43.5627 109.974 44.4693 109.611 45.536C109.248 46.5813 109.067 47.5627 109.067 48.48C109.067 49.2053 109.195 50.0053 109.451 50.88C109.707 51.7547 110.123 52.512 110.699 53.152C111.275 53.7707 112.011 54.08 112.907 54.08C114.528 54.08 115.627 53.3867 116.203 52C116.8 50.592 117.099 49.0453 117.099 47.36V42.976C116.736 42.592 116.31 42.2827 115.819 42.048C115.35 41.8133 114.838 41.696 114.283 41.696ZM134.154 39.712C135.306 39.712 136.266 40.0213 137.034 40.64C137.802 41.2587 138.186 42.176 138.186 43.392C138.186 44.3733 137.652 45.472 136.586 46.688C135.54 47.8827 134.303 48.9813 132.874 49.984C131.466 50.9867 130.26 51.6907 129.258 52.096C129.791 52.9493 130.399 53.5467 131.082 53.888C131.764 54.208 132.564 54.368 133.482 54.368C134.506 54.368 135.519 54.112 136.522 53.6C137.546 53.0667 138.388 52.384 139.05 51.552L139.434 52.224C138.388 53.568 137.279 54.6027 136.106 55.328C134.932 56.032 133.492 56.384 131.786 56.384C130.484 56.384 129.322 56.064 128.298 55.424C127.274 54.784 126.474 53.9307 125.898 52.864C125.322 51.776 125.034 50.6027 125.034 49.344C125.034 47.7653 125.46 46.2293 126.314 44.736C127.167 43.2427 128.298 42.0373 129.706 41.12C131.114 40.1813 132.596 39.712 134.154 39.712ZM132.49 41.728C131.551 41.728 130.708 42.0267 129.962 42.624C129.236 43.2213 128.66 43.9893 128.234 44.928C127.828 45.8667 127.626 46.8373 127.626 47.84C127.626 49.1627 127.935 50.2933 128.554 51.232C129.45 50.8267 130.42 50.2187 131.466 49.408C132.511 48.576 133.396 47.68 134.122 46.72C134.847 45.76 135.21 44.8853 135.21 44.096C135.21 42.5173 134.303 41.728 132.49 41.728ZM149.145 43.904C148.185 44.9067 147.353 46.2187 146.649 47.84C145.966 49.44 145.625 50.9013 145.625 52.224C145.625 53.376 145.87 54.3467 146.361 55.136C146.873 55.904 147.683 56.288 148.793 56.288C149.689 56.288 150.542 56.0533 151.353 55.584C152.185 55.1147 152.889 54.5067 153.465 53.76L153.113 53.28C152.451 53.728 151.801 53.952 151.161 53.952C150.158 53.952 149.401 53.6 148.889 52.896C148.377 52.192 148.121 51.3387 148.121 50.336C148.121 48.7147 148.537 47.1787 149.369 45.728C150.201 44.2773 151.257 42.8693 152.537 41.504L152.025 41.056C150.531 41.9947 149.166 42.464 147.929 42.464C147.203 42.464 146.542 42.144 145.945 41.504C145.347 40.8427 144.889 40.1173 144.569 39.328L141.977 42.24C142.126 42.6667 142.531 43.1573 143.193 43.712L141.049 48.192L142.233 48.736L144.312 44.16C144.675 44.3093 144.974 44.4053 145.209 44.448C145.443 44.4907 145.763 44.512 146.169 44.512C147.214 44.512 148.174 44.2773 149.049 43.808L149.145 43.904ZM160.23 53.312C160.23 53.568 160.305 53.8133 160.454 54.048C160.604 54.2827 160.86 54.4 161.222 54.4C161.521 54.4 161.83 54.272 162.15 54.016C162.492 53.7387 162.748 53.4507 162.918 53.152L163.462 53.632C163.1 54.336 162.598 54.9333 161.958 55.424C161.318 55.9147 160.678 56.16 160.038 56.16C158.246 56.16 157.35 55.0827 157.35 52.928V27.648L160.23 26.432V53.312ZM179.457 53.216C179.457 53.536 179.531 53.8027 179.681 54.016C179.851 54.208 180.086 54.304 180.385 54.304C180.833 54.304 181.377 53.888 182.017 53.056L182.497 53.536C182.049 54.496 181.505 55.1787 180.865 55.584C180.246 55.968 179.937 56.16 179.937 56.16C179.937 56.16 179.659 56.16 179.105 56.16C178.422 56.16 177.899 55.968 177.537 55.584C177.195 55.2 176.95 54.5173 176.801 53.536C176.651 52.5333 176.577 51.0507 176.577 49.088C176.577 47.9147 176.587 46.976 176.609 46.272L176.353 45.632H176.257C175.702 48.256 174.923 50.7093 173.921 52.992C172.939 55.2533 171.531 56.384 169.697 56.384C169.014 56.384 168.513 56.2133 168.193 55.872C167.894 55.5307 167.713 55.072 167.649 54.496C167.585 53.8987 167.553 52.992 167.553 51.776V42.752C167.553 42.3893 167.467 42.1013 167.297 41.888C167.147 41.6747 166.934 41.568 166.657 41.568C166.145 41.568 165.569 41.9947 164.929 42.848L164.545 42.336C164.886 41.5253 165.313 40.928 165.825 40.544C166.358 40.1387 166.849 39.8933 167.297 39.808C167.766 39.7013 168.001 39.68 168.001 39.744C167.979 39.744 167.947 39.7547 167.905 39.776C167.862 39.776 167.798 39.776 167.713 39.776C169.547 39.776 170.465 40.832 170.465 42.944V52.16C170.465 52.6293 170.518 52.9707 170.625 53.184C170.731 53.376 170.859 53.472 171.009 53.472C171.926 53.472 172.779 52.576 173.569 50.784C174.358 48.992 174.998 47.0187 175.489 44.864C176.001 42.7093 176.257 41.4187 176.257 40.992L179.457 39.552V53.216ZM189.178 38.688C189.903 38.688 190.426 38.816 190.746 39.072C191.087 39.328 191.258 39.7227 191.258 40.256C191.258 40.832 191.14 41.344 190.906 41.792C190.692 42.24 190.458 42.624 190.202 42.944C189.946 43.264 189.775 43.488 189.69 43.616C189.946 44.0427 190.426 44.544 191.13 45.12C191.706 45.6107 192.164 46.048 192.506 46.432C192.847 46.816 193.135 47.3387 193.37 48C193.626 48.64 193.754 49.4293 193.754 50.368C193.754 51.4773 193.498 52.4907 192.986 53.408C192.495 54.3253 191.802 55.0507 190.906 55.584C190.031 56.1173 189.039 56.384 187.93 56.384C187.247 56.384 186.5 56.2453 185.69 55.968C184.879 55.6693 184.282 55.2533 183.898 54.72L186.042 51.872C186.554 52.5333 187.087 53.0987 187.641 53.568C188.218 54.0373 188.836 54.272 189.498 54.272C190.415 54.272 191.194 53.9733 191.834 53.376C192.495 52.7573 192.826 52.0213 192.826 51.168C192.826 50.4853 192.538 49.8133 191.962 49.152C191.407 48.4693 190.618 47.6693 189.594 46.752C189.466 46.6453 189.22 46.432 188.858 46.112C188.495 45.7707 188.228 45.4933 188.058 45.28L185.818 48.576L184.794 47.904L187.354 44.352C187.055 43.52 186.906 42.6987 186.906 41.888C186.906 40.9707 187.108 40.2133 187.514 39.616C187.919 38.9973 188.474 38.688 189.178 38.688ZM189.178 39.936C188.9 39.936 188.719 40.0107 188.634 40.16C188.57 40.3093 188.538 40.5333 188.538 40.832C188.538 41.216 188.591 41.5467 188.698 41.824C188.804 42.1013 188.879 42.2933 188.922 42.4C189.156 42.2507 189.37 41.984 189.562 41.6C189.775 41.1947 189.882 40.8533 189.882 40.576C189.882 40.384 189.818 40.2347 189.69 40.128C189.583 40 189.412 39.936 189.178 39.936ZM201.239 40H205.687L204.727 42.048H201.239V53.312C201.239 53.632 201.335 53.8987 201.527 54.112C201.719 54.304 201.975 54.4 202.295 54.4C202.743 54.4 203.361 53.984 204.151 53.152L204.599 53.632C204.193 54.4427 203.703 55.0507 203.127 55.456C202.572 55.84 202.039 56.0747 201.527 56.16C201.036 56.2667 200.791 56.2773 200.791 56.192C200.812 56.192 200.844 56.1813 200.887 56.16C200.929 56.16 200.993 56.16 201.079 56.16C199.201 56.16 198.263 55.0827 198.263 52.928V42.048H195.863L196.855 40H198.263V32.64L201.239 31.488V40Z" fill="white"/>
</svg>
